<svg aria-hidden="true" style="position: absolute; width: 0; height: 0; overflow: hidden;" version="1.1" xmlns="http://www.w3.org/2000/svg" xmlns:xlink="http://www.w3.org/1999/xlink">
<defs>
<symbol id="icon-burger-menu__icon" viewBox="0 0 32 32">
<path d="M5.627 5.975c-0.568 0.097-0.82 0.41-0.86 1.067-0.039 0.638 0.207 1.062 0.697 1.197 0.286 0.079 21.972 0.079 22.258 0 0.488-0.135 0.735-0.558 0.698-1.197-0.028-0.514-0.172-0.777-0.52-0.956l-0.269-0.139-10.871-0.008c-5.978-0.005-10.988 0.012-11.132 0.037zM5.393 13.135c-0.455 0.161-0.67 0.593-0.622 1.254 0.032 0.452 0.184 0.721 0.504 0.891l0.229 0.123h22.18l0.229-0.123c0.32-0.171 0.472-0.44 0.504-0.891 0.049-0.679-0.199-1.141-0.68-1.275-0.155-0.043-3.384-0.060-11.169-0.058-9.294 0.001-10.985 0.013-11.173 0.079zM5.337 20.265c-0.238 0.124-0.421 0.327-0.515 0.573l-0.002 0.007c-0.152 0.454-0.027 1.153 0.25 1.4 0.314 0.28-0.326 0.264 11.524 0.264s11.209 0.015 11.524-0.264c0.277-0.247 0.402-0.946 0.25-1.4-0.097-0.258-0.285-0.463-0.525-0.579l-0.006-0.003c-0.261-0.113-22.247-0.11-22.498 0.001z"></path>
</symbol>
<symbol id="icon-calendar__icon" viewBox="0 0 32 32">
<path style="fill: var(--color1, #4440f7)" d="M22.667 4h5.333c0.354 0 0.693 0.14 0.943 0.391s0.391 0.589 0.391 0.943v21.333c0 0.354-0.14 0.693-0.391 0.943s-0.589 0.391-0.943 0.391h-24c-0.354 0-0.693-0.14-0.943-0.391s-0.39-0.589-0.39-0.943v-21.333c0-0.354 0.14-0.693 0.39-0.943s0.589-0.391 0.943-0.391h5.333v-2.667h2.667v2.667h8v-2.667h2.667v2.667zM26.667 14.667h-21.333v10.667h21.333v-10.667zM20 6.667h-8v2.667h-2.667v-2.667h-4v5.333h21.333v-5.333h-4v2.667h-2.667v-2.667zM8 17.333h2.667v2.667h-2.667v-2.667zM14.667 17.333h2.667v2.667h-2.667v-2.667zM21.333 17.333h2.667v2.667h-2.667v-2.667z"></path>
</symbol>
<symbol id="icon-down-arrow__icon" viewBox="0 0 32 32">
<path style="fill: var(--color2, #4440f6)" d="M3.76 9.143l-3.76 3.479 16 14.806 16-14.806-3.76-3.479-12.24 11.302-12.24-11.302z"></path>
</symbol>
<symbol id="icon-favorite-ckecked__icon" viewBox="0 0 32 32">
<path style="fill: var(--color3, #4b48da)" d="M9.333 4c-3.681 0-6.667 2.955-6.667 6.6 0 2.943 1.167 9.927 12.651 16.987 0.206 0.125 0.442 0.191 0.683 0.191s0.477-0.066 0.683-0.191c11.484-7.060 12.651-14.044 12.651-16.987 0-3.645-2.985-6.6-6.667-6.6s-6.667 4-6.667 4-2.985-4-6.667-4z"></path>
</symbol>
<symbol id="icon-favorites__icon" viewBox="0 0 32 32">
<path d="M32 16c0 8.837-7.163 16-16 16s-16-7.163-16-16c0-8.837 7.163-16 16-16s16 7.163 16 16z"></path>
<path stroke="#f4f4f4" style="stroke: var(--color4, #f4f4f4)" stroke-linejoin="round" stroke-linecap="round" stroke-miterlimit="4" stroke-width="1" d="M22.63 10.457c-0.383-0.383-0.838-0.687-1.338-0.895s-1.037-0.314-1.579-0.314c-0.542 0-1.078 0.107-1.579 0.314s-0.955 0.511-1.338 0.895l-0.795 0.795-0.795-0.795c-0.774-0.774-1.823-1.208-2.918-1.208s-2.144 0.435-2.918 1.208c-0.774 0.774-1.208 1.823-1.208 2.918s0.435 2.144 1.208 2.917l6.63 6.63 6.63-6.63c0.383-0.383 0.687-0.838 0.895-1.338s0.314-1.037 0.314-1.579c0-0.542-0.107-1.078-0.314-1.579s-0.512-0.955-0.895-1.338v0z"></path>
</symbol>
<symbol id="icon-favorite-unckecked__icon" viewBox="0 0 32 32">
<path stroke="#4440f7" style="stroke: var(--color1, #4440f7)" stroke-linejoin="round" stroke-linecap="round" stroke-miterlimit="4" stroke-width="2" d="M9.333 4c-3.681 0-6.667 2.955-6.667 6.6 0 2.943 1.167 9.927 12.651 16.987 0.206 0.125 0.442 0.191 0.683 0.191s0.477-0.066 0.683-0.191c11.484-7.060 12.651-14.044 12.651-16.987 0-3.645-2.985-6.6-6.667-6.6s-6.667 4-6.667 4-2.985-4-6.667-4z"></path>
</symbol>
<symbol id="icon-home__icon" viewBox="0 0 32 32">
<path d="M32 16c0 8.837-7.163 16-16 16s-16-7.163-16-16c0-8.837 7.163-16 16-16s16 7.163 16 16z"></path>
<path stroke="#f4f4f4" style="stroke: var(--color4, #f4f4f4)" stroke-linejoin="round" stroke-linecap="round" stroke-miterlimit="4" stroke-width="1" d="M9.25 13.75l6.75-5.25 6.75 5.25v8.25c0 0.398-0.158 0.779-0.439 1.061s-0.663 0.439-1.061 0.439h-10.5c-0.398 0-0.779-0.158-1.061-0.439s-0.439-0.663-0.439-1.061v-8.25z"></path>
<path stroke="#f4f4f4" style="stroke: var(--color4, #f4f4f4)" stroke-linejoin="round" stroke-linecap="round" stroke-miterlimit="4" stroke-width="1" d="M13.75 23.5v-7.5h4.5v7.5"></path>
</symbol>
<symbol id="icon-read__icon" viewBox="0 0 32 32">
<path d="M32 16c0 8.837-7.163 16-16 16s-16-7.163-16-16c0-8.837 7.163-16 16-16s16 7.163 16 16z"></path>
<path stroke="#f4f4f4" style="stroke: var(--color4, #f4f4f4)" stroke-linejoin="round" stroke-linecap="round" stroke-miterlimit="4" stroke-width="1" d="M8.5 9.25h4.5c0.796 0 1.559 0.316 2.121 0.879s0.879 1.326 0.879 2.121v10.5c0-0.597-0.237-1.169-0.659-1.591s-0.994-0.659-1.591-0.659h-5.25v-11.25z"></path>
<path stroke="#f4f4f4" style="stroke: var(--color4, #f4f4f4)" stroke-linejoin="round" stroke-linecap="round" stroke-miterlimit="4" stroke-width="1" d="M23.5 9.25h-4.5c-0.796 0-1.559 0.316-2.121 0.879s-0.879 1.326-0.879 2.121v10.5c0-0.597 0.237-1.169 0.659-1.591s0.994-0.659 1.591-0.659h5.25v-11.25z"></path>
</symbol>
<symbol id="icon-search__icon" viewBox="0 0 34 32">
<path d="M14.035 24c2.491-0 4.911-0.793 6.873-2.251l6.17 5.861 1.985-1.885-6.17-5.861c1.535-1.864 2.37-4.163 2.371-6.531 0-5.881-5.037-10.667-11.228-10.667s-11.228 4.785-11.228 10.667c0 5.881 5.037 10.667 11.228 10.667zM14.035 5.333c4.644 0 8.421 3.588 8.421 8s-3.777 8-8.421 8c-4.644 0-8.421-3.588-8.421-8s3.777-8 8.421-8z"></path>
</symbol>
<symbol id="icon-theme-dark__icon" viewBox="0 0 32 32">
<path stroke="#5f6775" style="stroke: var(--color5, #5f6775)" stroke-linejoin="round" stroke-linecap="round" stroke-miterlimit="4" stroke-width="2.2857" d="M28 17.053c-0.21 2.27-1.061 4.433-2.456 6.236s-3.273 3.172-5.417 3.946c-2.144 0.774-4.464 0.922-6.688 0.426s-4.262-1.615-5.874-3.227c-1.612-1.612-2.731-3.649-3.227-5.874s-0.348-4.544 0.426-6.688 2.143-4.023 3.946-5.417c1.803-1.394 3.966-2.246 6.236-2.456-1.329 1.798-1.968 4.013-1.802 6.242s1.127 4.325 2.708 5.906c1.581 1.581 3.676 2.542 5.906 2.708s4.444-0.473 6.242-1.802v0z"></path>
</symbol>
<symbol id="icon-theme-ligth__icon" viewBox="0 0 32 32">
<path stroke="#4b48db" style="stroke: var(--color6, #4b48db)" stroke-linejoin="round" stroke-linecap="round" stroke-miterlimit="4" stroke-width="2.2857" d="M16 1.778v2.586M16 27.636v2.586M5.941 5.941l1.836 1.836M24.223 24.223l1.836 1.836M1.778 16h2.586M27.636 16h2.586M5.941 26.059l1.836-1.836M24.223 7.777l1.836-1.836M22.465 16c0 3.57-2.894 6.465-6.465 6.465s-6.465-2.894-6.465-6.465c0-3.57 2.894-6.465 6.465-6.465s6.465 2.894 6.465 6.465z"></path>
</symbol>
<symbol id="icon-up-arrow__icon" viewBox="0 0 32 32">
<path style="fill: var(--color2, #4440f6)" d="M3.76 25.143l-3.76-3.479 16-14.806 16 14.806-3.76 3.479-12.24-11.302-12.24 11.302z"></path>
</symbol>
<symbol id="icon-convchevron-right" viewBox="0 0 32 32">
<path fill="none" stroke="#393636" style="stroke: var(--color1, #f4f4f4)" stroke-linejoin="round" stroke-linecap="round" stroke-miterlimit="4" stroke-width="2.6667" d="M12 24l8-8-8-8"></path>
</symbol>
<symbol id="icon-close-mob-menu" viewBox="0 0 32 32">
<path d="M7.501 6.727c-0.322 0.196-0.585 0.461-0.772 0.776l-0.006 0.010c-0.069 0.144-0.109 0.312-0.109 0.49 0 0.179 0.041 0.348 0.114 0.5l-0.003-0.007c0.075 0.149 1.313 1.427 3.745 3.864l3.635 3.64-3.635 3.64c-2.432 2.437-3.671 3.715-3.745 3.864-0.235 0.469-0.113 0.977 0.34 1.431s0.961 0.575 1.431 0.34c0.149-0.075 1.427-1.313 3.864-3.745l3.64-3.635 3.64 3.635c2.437 2.432 3.715 3.671 3.864 3.745 0.469 0.235 0.977 0.113 1.431-0.34s0.575-0.961 0.34-1.431c-0.075-0.149-1.313-1.427-3.745-3.864l-3.635-3.64 3.635-3.64c2.432-2.437 3.671-3.715 3.745-3.864 0.235-0.469 0.113-0.977-0.34-1.431s-0.961-0.575-1.431-0.34c-0.149 0.075-1.427 1.313-3.864 3.745l-3.64 3.635-3.64-3.635c-2.437-2.432-3.715-3.671-3.864-3.745-0.145-0.069-0.316-0.109-0.496-0.109-0.181 0-0.353 0.041-0.506 0.114l0.007-0.003z"></path>
</symbol>
</defs>
</svg>
